HIERARCHY
ROOT Hips
{
	OFFSET 80.650703 -23.173313 87.145500
	CHANNELS 6 Xposition Yposition Zposition Xrotation Yrotation Zrotation
	JOINT spine
	{
		OFFSET 0.000000 -0.393702 6.846359
		CHANNELS 3 Xrotation Yrotation Zrotation
		JOINT spine1
		{
			OFFSET 0.000000 -0.000002 9.496208
			CHANNELS 3 Xrotation Yrotation Zrotation
			JOINT spine2
			{
				OFFSET 0.000000 -0.000002 9.099091
				CHANNELS 3 Xrotation Yrotation Zrotation
				JOINT Neck
				{
					OFFSET 0.000000 -1.113783 23.361206
					CHANNELS 3 Xrotation Yrotation Zrotation
					JOINT Head
					{
						OFFSET 0.000000 0.000000 7.058014
						CHANNELS 3 Xrotation Yrotation Zrotation
						End Site
						{
							OFFSET 0.000000 5.634186 17.084396
						}
					}
				}
				JOINT RightShoulder
				{
					OFFSET -3.831360 0.533491 9.826317
					CHANNELS 3 Xrotation Yrotation Zrotation
					JOINT RightArm
					{
						OFFSET 0.000000 -0.000004 12.888100
						CHANNELS 3 Xrotation Yrotation Zrotation
						JOINT RightArmRoll
						{
							OFFSET 0.000000 0.000000 6.506165
							CHANNELS 3 Xrotation Yrotation Zrotation
							JOINT RightForeArm
							{
								OFFSET 0.000000 -0.000004 18.950104
								CHANNELS 3 Xrotation Yrotation Zrotation
								JOINT RightForeArmRoll
								{
									OFFSET 0.000000 0.000000 7.300919
									CHANNELS 3 Xrotation Yrotation Zrotation
									JOINT RightHand
									{
										OFFSET 0.000000 -0.000004 14.651398
										CHANNELS 3 Xrotation Yrotation Zrotation
										End Site
										{
											OFFSET 0.000000 0.000000 0.100006
										}
									}
								}
							}
						}
					}
				}
				JOINT LeftShoulder
				{
					OFFSET 3.831360 0.533491 9.826317
					CHANNELS 3 Xrotation Yrotation Zrotation
					JOINT LeftArm
					{
						OFFSET 0.000000 -0.000004 12.888100
						CHANNELS 3 Xrotation Yrotation Zrotation
						JOINT LeftArmRoll
						{
							OFFSET 0.000000 0.000000 6.506165
							CHANNELS 3 Xrotation Yrotation Zrotation
							JOINT LeftForeArm
							{
								OFFSET 0.000000 -0.000004 18.950104
								CHANNELS 3 Xrotation Yrotation Zrotation
								JOINT LeftForeArmRoll
								{
									OFFSET 0.000000 0.000000 7.300919
									CHANNELS 3 Xrotation Yrotation Zrotation
									JOINT LeftHand
									{
										OFFSET 0.000000 -0.000004 14.651398
										CHANNELS 3 Xrotation Yrotation Zrotation
										End Site
										{
											OFFSET 0.000000 0.000000 0.100006
										}
									}
								}
							}
						}
					}
				}
			}
		}
	}
	JOINT RightUpLeg
	{
		OFFSET -6.068367 0.933477 -1.112778
		CHANNELS 3 Xrotation Yrotation Zrotation
		JOINT RightUpLegRoll
		{
			OFFSET 0.000000 -0.000004 17.179604
			CHANNELS 3 Xrotation Yrotation Zrotation
			JOINT RightLeg
			{
				OFFSET 0.000000 0.000004 -21.274300
				CHANNELS 3 Xrotation Yrotation Zrotation
				JOINT RightLegRoll
				{
					OFFSET 0.000000 -0.000004 21.343903
					CHANNELS 3 Xrotation Yrotation Zrotation
					JOINT RightFoot
					{
						OFFSET 0.000000 -0.000002 17.765198
						CHANNELS 3 Xrotation Yrotation Zrotation
						JOINT RightToeBase
						{
							OFFSET 0.000000 -0.000004 14.850792
							CHANNELS 3 Xrotation Yrotation Zrotation
							End Site
							{
								OFFSET 0.006294 0.829004 7.192123
							}
						}
					}
				}
			}
		}
	}
	JOINT LeftUpLeg
	{
		OFFSET 6.068367 0.933477 -1.112778
		CHANNELS 3 Xrotation Yrotation Zrotation
		JOINT LeftUpLegRoll
		{
			OFFSET 0.000000 -0.000004 17.179703
			CHANNELS 3 Xrotation Yrotation Zrotation
			JOINT LeftLeg
			{
				OFFSET 0.000000 -0.000004 21.274200
				CHANNELS 3 Xrotation Yrotation Zrotation
				JOINT LeftLegRoll
				{
					OFFSET 0.000000 -0.000002 21.541206
					CHANNELS 3 Xrotation Yrotation Zrotation
					JOINT LeftFoot
					{
						OFFSET 0.000000 -0.000004 17.567902
						CHANNELS 3 Xrotation Yrotation Zrotation
						JOINT LeftToeBase
						{
							OFFSET 0.000000 -0.000002 14.850800
							CHANNELS 3 Xrotation Yrotation Zrotation
							End Site
							{
								OFFSET -0.028214 0.829002 7.192139
							}
						}
					}
				}
			}
		}
	}
}
MOTION
Frames: 9
Frame Time: 0.041667
81.372498 -24.733017 86.171394 -4.333165 19.624399 72.341300 -1.673581 1.069842 1.376436 0.630733 2.112652 2.773918 2.275478 2.145717 2.748430 -3.723510 18.343996 -0.307043 9.423961 -23.181647 -0.435756 -2.602894 -14.968534 3.614849 249.305511 -193.019397 291.759754 -0.000002 -0.000019 -0.000003 7.849368 13.563215 -1.568370 -0.000003 0.000006 -3.010122 -4.999870 -7.999932 -0.000007 -43.786072 54.799680 52.384313 -311.720326 95.799516 279.107539 -0.000001 -0.000001 -0.000008 4.015390 8.004924 0.134134 0.000002 -0.000002 3.010855 -4.999815 8.000549 -0.000052 6.682590 176.248592 -2.051429 -179.999991 0.000005 -1.176003 170.291519 -2.204999 -0.545150 -0.000008 -0.000002 0.068212 66.929700 6.911718 2.214762 25.578710 -7.349682 0.193898 -51.422568 176.420904 9.640926 -0.000001 -0.000007 -0.784136 -36.434336 -5.653217 -0.188325 -0.000005 0.000002 -0.593169 69.462464 -6.963649 -1.906592 25.456955 7.355612 0.000001 
81.405090 -24.754715 86.171600 -4.387731 19.664284 72.520900 -1.661529 1.069650 1.382246 0.654738 2.112433 2.785315 2.299475 2.145633 2.759834 -3.739121 18.419967 -0.363782 9.419453 -23.284755 -0.496574 -2.575788 -14.944360 3.666614 249.436733 -193.014152 291.991434 -0.000001 -0.000019 -0.000004 7.803929 13.691509 -1.571827 -0.000003 0.000003 -3.009913 -4.999870 -7.999932 -0.000008 -43.706695 54.760615 52.296808 -312.834685 96.193201 280.312767 -0.000001 0.000001 -0.000006 4.169329 8.079403 0.128888 0.000000 0.000000 3.010849 -4.999812 8.000551 -0.000052 6.686229 176.178091 -2.081387 -179.999991 0.000005 -1.172997 170.328143 -2.231850 -0.544267 -0.000006 -0.000003 0.067947 66.914229 6.911782 2.215350 25.591547 -7.349728 0.214137 -51.507105 176.468210 9.678458 -0.000002 -0.000005 -0.783594 -36.510459 -5.690894 -0.197858 -0.000005 0.000003 -0.597734 69.477162 -6.962294 -1.908222 25.456955 7.355616 -0.000002 
81.410896 -24.801809 86.131691 -4.429662 19.698880 72.694209 -1.648788 1.071756 1.388557 0.680037 2.116830 2.797790 2.324764 2.150179 2.772262 -3.765183 18.498712 -0.418571 9.423004 -23.392139 -0.555410 -2.553878 -14.907238 3.712613 249.560632 -193.009548 292.201312 -0.000001 -0.000019 -0.000004 7.745896 13.809484 -1.573088 -0.000002 0.000002 -3.009714 -4.999870 -7.999932 -0.000008 -43.637426 54.727714 52.220389 -313.744576 96.573739 281.300357 -0.000002 0.000001 -0.000006 4.299441 8.143498 0.124249 0.000001 -0.000000 3.010848 -4.999816 8.000549 -0.000046 6.694561 176.123545 -2.102147 -179.999991 0.000006 -1.171006 170.370709 -2.258759 -0.544121 -0.000002 -0.000002 0.067520 66.895399 6.911845 2.216148 25.607008 -7.349766 0.238599 -51.582200 176.526526 9.714570 -0.000003 -0.000006 -0.782980 -36.581066 -5.727175 -0.207211 -0.000005 0.000002 -0.602118 69.491444 -6.960954 -1.909984 25.456952 7.355615 -0.000001 
81.411201 -24.838013 86.106400 -4.457449 19.727625 72.859725 -1.635261 1.076451 1.395439 0.706827 2.126407 2.811434 2.351560 2.159920 2.785783 -3.802965 18.583609 -0.470488 9.435991 -23.507375 -0.611376 -2.536606 -14.853476 3.754187 249.676745 -193.003060 292.382148 -0.000001 -0.000019 -0.000006 7.676482 13.912049 -1.571861 -0.000003 0.000004 -3.009529 -4.999869 -7.999930 -0.000007 -43.581327 54.703309 52.158087 -314.469067 96.937924 282.084928 -0.000003 0.000002 -0.000009 4.399271 8.194021 0.120673 0.000001 -0.000001 3.010839 -4.999816 8.000550 -0.000053 6.708260 176.085897 -2.112653 -179.999991 0.000006 -1.168996 170.420391 -2.285708 -0.542648 -0.000002 -0.000002 0.066908 66.872921 6.911908 2.217074 25.625289 -7.349765 0.267476 -51.646383 176.596945 9.748248 0.000001 -0.000006 -0.782274 -36.645109 -5.761478 -0.216244 -0.000005 0.000002 -0.606267 69.505200 -6.959591 -1.912172 25.456957 7.355614 -0.000000 
81.449699 -24.856113 86.078300 -4.469684 19.750067 73.016136 -1.620836 1.084016 1.402913 0.735318 2.141713 2.826330 2.380045 2.175413 2.800495 -3.853741 18.677813 -0.518582 9.459801 -23.634435 -0.663457 -2.523465 -14.779081 3.792679 249.784881 -192.992131 292.528369 -0.000002 -0.000019 -0.000004 7.596926 13.994527 -1.567983 -0.000003 0.000002 -3.009373 -4.999871 -7.999930 -0.000010 -43.541090 54.689653 52.112677 -315.021985 97.282548 282.675630 0.000001 -0.000000 -0.000011 4.462448 8.227846 0.118605 0.000001 -0.000000 3.010836 -4.999816 8.000549 -0.000050 6.728037 176.067182 -2.111715 -179.999991 0.000006 -1.167999 170.478421 -2.312733 -0.541804 -0.000004 -0.000002 0.066070 66.845941 6.911982 2.218286 25.646501 -7.349734 0.301006 -51.697975 176.679959 9.779263 -0.000001 -0.000007 -0.781473 -36.701222 -5.793241 -0.224761 -0.000005 0.000003 -0.610127 69.518294 -6.958195 -1.914696 25.456953 7.355615 -0.000000 
81.450897 -24.894413 86.049698 -4.464960 19.765447 73.162056 -1.605422 1.094730 1.411032 0.765700 2.163335 2.842554 2.410423 2.197223 2.816463 -3.918820 18.784866 -0.561844 9.495824 -23.776775 -0.710747 -2.513917 -14.680469 3.829457 249.884711 -192.974031 292.633007 -0.000002 -0.000019 -0.000004 7.508453 14.051667 -1.561303 -0.000002 0.000004 -3.009259 -4.999868 -7.999932 -0.000007 -43.519537 54.689086 52.087183 -315.413956 97.604633 283.078310 -0.000000 -0.000001 -0.000010 4.482514 8.241809 0.118485 0.000003 -0.000000 3.010840 -4.999818 8.000547 -0.000051 6.754561 176.071376 -2.097927 -179.999991 0.000005 -1.166004 170.545985 -2.338831 -0.539343 -0.000004 -0.000003 0.064978 66.814044 6.912056 2.219709 25.670843 -7.349651 0.339435 -51.735295 176.776074 9.807358 -0.000002 -0.000006 -0.780560 -36.748450 -5.821865 -0.232621 -0.000005 0.000003 -0.613637 69.530547 -6.956806 -1.917577 25.456955 7.355612 0.000000 
81.625900 -24.834909 86.090096 -4.435318 19.767981 73.294466 -1.588017 1.110414 1.420614 0.799903 2.194916 2.861783 2.444632 2.229030 2.835311 -4.002161 18.895792 -0.602849 9.546942 -23.926972 -0.755310 -2.511812 -14.558794 3.858864 249.975225 -192.956013 292.700681 -0.000002 -0.000020 -0.000005 7.398767 14.090777 -1.550976 -0.000003 0.000004 -3.009172 -4.999868 -7.999930 -0.000010 -43.512564 54.698259 52.077365 -315.710031 97.905065 283.364960 -0.000000 -0.000001 -0.000012 4.462601 8.240748 0.119984 0.000002 -0.000001 3.010844 -4.999815 8.000551 -0.000052 6.795423 176.108450 -2.063926 -179.999991 0.000005 -1.165004 170.628589 -2.365042 -0.537194 -0.000001 -0.000003 0.063513 66.774443 6.912212 2.221235 25.700129 -7.349502 0.385719 -51.750069 176.894700 9.831029 -0.000002 -0.000005 -0.779507 -36.784657 -5.847127 -0.239843 -0.000005 0.000003 -0.616807 69.542035 -6.955343 -1.921090 25.456955 7.355615 -0.000001 
81.612900 -24.882803 86.056297 -4.377162 19.753938 73.413182 -1.568038 1.132076 1.432207 0.839099 2.238479 2.885102 2.483824 2.272875 2.858104 -4.105278 19.000639 -0.644511 9.613665 -24.074860 -0.799760 -2.520584 -14.419516 3.875264 250.056067 -192.946069 292.744531 -0.000002 -0.000019 -0.000006 7.257450 14.122973 -1.536662 -0.000003 0.000004 -3.009079 -4.999868 -7.999932 -0.000009 -43.514039 54.712093 52.076839 -315.972365 98.187582 283.607732 0.000001 0.000001 -0.000010 4.412391 8.231820 0.122485 -0.000001 -0.000003 3.010842 -4.999817 8.000551 -0.000050 6.855411 176.183405 -2.005595 -179.999991 0.000005 -1.165007 170.728938 -2.393360 -0.534569 -0.000008 -0.000002 0.061631 66.725921 6.912294 2.223302 25.735871 -7.349243 0.441811 -51.738215 177.041317 9.850637 -0.000001 -0.000006 -0.778312 -36.809860 -5.869478 -0.246638 -0.000005 0.000003 -0.619703 69.553292 -6.953803 -1.925206 25.456957 7.355613 -0.000001 
81.718903 -24.794506 86.062897 -4.295680 19.726669 73.520771 -1.545946 1.158798 1.445442 0.882376 2.292178 2.911757 2.527105 2.326888 2.884114 -4.225665 19.100317 -0.686333 9.693940 -24.220937 -0.843731 -2.539070 -14.264955 3.879991 250.128139 -192.942722 292.766333 -0.000002 -0.000019 -0.000003 7.088495 14.148945 -1.518811 -0.000003 0.000004 -3.008995 -4.999870 -7.999931 -0.000008 -43.523424 54.730186 52.084936 -316.204864 98.453714 283.811190 0.000001 0.000003 -0.000011 4.335299 8.215397 0.125850 0.000001 -0.000001 3.010841 -4.999815 8.000551 -0.000050 6.930957 176.290242 -1.926621 -179.999991 0.000006 -1.165008 170.843918 -2.422770 -0.530376 -0.000004 -0.000002 0.059403 66.669900 6.912435 2.225561 25.776963 -7.348874 0.506316 -51.704177 177.212072 9.866712 -0.000002 -0.000007 -0.776986 -36.825716 -5.889457 -0.253068 -0.000005 0.000002 -0.622368 69.564104 -6.952209 -1.929837 25.456957 7.355614 -0.000001 
